<?xml version="1.0" standalone="no"?>
<!DOCTYPE svg PUBLIC "-//W3C//DTD SVG 20010904//EN"
 "http://www.w3.org/TR/2001/REC-SVG-20010904/DTD/svg10.dtd">
<svg version="1.0" xmlns="http://www.w3.org/2000/svg"
 width="668.000000pt" height="668.000000pt" viewBox="0 0 668.000000 668.000000"
 preserveAspectRatio="xMidYMid meet">
<metadata>
Created by potrace 1.11, written by Peter Selinger 2001-2013
</metadata>
<g transform="translate(0.000000,668.000000) scale(0.100000,-0.100000)"
fill="#000000" stroke="none">
<path d="M1452 5967 c-24 -122 -45 -233 -48 -247 -21 -107 -35 -179 -39 -200
-3 -14 -7 -36 -10 -50 -3 -14 -7 -36 -10 -50 -3 -14 -8 -41 -11 -60 -10 -51
-11 -58 -28 -140 -15 -76 -84 -434 -92 -480 -4 -20 -54 -275 -80 -402 -2 -13
-7 -36 -9 -53 -10 -54 -36 -189 -45 -235 -6 -25 -12 -60 -15 -79 -3 -19 -7
-37 -9 -40 -2 -3 -7 -28 -10 -55 -4 -27 -9 -52 -11 -55 -1 -3 -6 -22 -9 -41
-3 -19 -19 -105 -36 -190 -17 -85 -37 -189 -45 -230 -7 -41 -41 -214 -74 -385
-63 -323 -68 -347 -76 -392 -3 -16 -12 -59 -19 -98 -27 -132 -46 -230 -51
-260 -2 -16 -9 -55 -15 -85 -14 -68 -18 -88 -24 -120 -2 -14 -19 -97 -36 -185
-18 -88 -34 -171 -36 -183 -3 -13 -21 -105 -40 -205 -19 -100 -37 -193 -40
-207 -2 -14 -16 -81 -29 -150 -13 -69 -27 -138 -29 -155 -3 -16 -15 -77 -26
-134 -12 -57 -19 -106 -16 -108 7 -8 1627 -6 1634 1 3 3 6 275 7 604 1 562 2
599 19 637 11 22 20 42 21 45 3 10 24 58 84 190 l60 135 148 0 148 0 52 -120
c28 -66 59 -136 67 -155 8 -19 65 -152 126 -295 61 -143 119 -278 129 -300 10
-22 105 -244 212 -492 107 -249 197 -453 200 -453 4 0 14 21 24 47 10 27 28
71 41 98 13 28 62 142 109 255 48 113 95 223 105 245 10 22 25 56 33 75 102
241 192 453 206 485 10 22 74 169 141 327 l123 287 144 0 144 1 31 -68 c16
-37 60 -137 97 -222 l68 -155 -1 -587 -1 -588 70 -1 c391 -2 1567 0 1571 4 4
4 -24 166 -46 262 -5 22 -11 56 -15 75 -3 19 -8 46 -10 60 -9 41 -14 71 -31
160 -9 47 -18 94 -20 105 -8 37 -24 120 -30 150 -3 17 -25 131 -49 255 -24
124 -51 261 -60 305 -8 44 -28 148 -45 230 -16 83 -32 166 -35 185 -3 19 -15
78 -25 130 -11 52 -36 181 -56 285 -20 105 -38 199 -40 210 -3 18 -16 82 -19
95 -1 3 -5 25 -9 50 -5 25 -10 54 -13 65 -2 11 -8 43 -13 70 -6 28 -12 61 -15
75 -3 14 -14 75 -26 135 -11 61 -33 175 -49 255 -16 80 -41 206 -55 280 -14
74 -28 146 -31 160 -3 14 -7 36 -10 50 -2 14 -11 61 -20 105 -22 111 -21 105
-50 255 -14 74 -28 144 -30 155 -7 35 -46 239 -50 265 -4 22 -57 291 -84 425
-5 28 -11 62 -14 76 -2 14 -13 73 -25 130 -11 57 -22 115 -25 129 -2 14 -7 36
-10 50 -3 14 -8 39 -11 55 -30 165 -40 204 -46 198 -6 -6 -388 -910 -551
-1303 -17 -41 -39 -93 -48 -115 -10 -22 -77 -184 -151 -359 l-133 -319 -26 54
c-25 54 -44 96 -115 254 -53 115 -52 114 -295 645 -122 267 -254 555 -292 640
-39 85 -85 187 -103 225 -18 39 -54 117 -80 175 -26 58 -49 107 -51 109 -4 5
-40 -73 -251 -539 -170 -375 -196 -433 -231 -510 -19 -42 -307 -678 -337 -745
-7 -16 -31 -68 -52 -115 -22 -47 -48 -104 -58 -127 -10 -24 -22 -43 -25 -43
-4 0 -18 28 -32 63 -14 34 -83 199 -153 367 -70 168 -215 514 -322 770 -201
479 -210 501 -236 560 -8 19 -40 96 -71 170 -31 74 -60 138 -64 142 -4 4 -26
-93 -50 -215z m1978 -1377 c51 -113 123 -272 161 -355 l68 -150 -321 -3 c-177
-1 -323 -1 -325 1 -3 4 15 50 55 137 11 25 62 137 112 250 128 285 150 333
154 329 2 -2 45 -96 96 -209z m511 -1139 c8 -1 42 -78 42 -94 0 -20 -195 -481
-208 -492 -15 -13 -863 -12 -874 1 -4 5 -18 34 -30 64 -13 30 -29 69 -36 85
-64 148 -145 346 -145 355 0 6 9 28 19 48 l19 37 603 -1 c332 -1 607 -2 610
-3z m-2431 -757 l0 -516 -136 -302 c-159 -350 -196 -429 -190 -401 3 11 23
121 45 245 23 124 43 236 46 250 3 14 18 99 35 190 16 91 32 175 34 186 2 12
7 38 10 58 3 19 10 55 15 78 5 24 12 60 15 80 3 21 10 57 15 80 5 24 12 59 15
78 7 41 23 133 31 173 3 15 7 37 9 50 13 71 35 188 41 217 2 8 4 23 4 33 1 9
3 17 6 17 2 0 5 -232 5 -516z m3683 396 c6 -26 72 -382 81 -435 3 -16 8 -41
11 -55 9 -44 27 -144 31 -165 1 -11 14 -81 29 -155 14 -74 28 -148 30 -165 3
-16 14 -75 25 -130 10 -55 24 -127 29 -160 6 -33 13 -69 15 -80 49 -255 55
-307 26 -233 -7 18 -28 65 -46 103 -17 39 -82 179 -143 313 l-110 243 0 512
c1 289 5 495 9 472 5 -22 11 -51 13 -65z"/>
</g>
</svg>
